PathFileType	4	(X/Y/Z)	c:\Git\powerlifing_model_clean\simulations\HC835B\Session1\HC835B_OGR_0003\marker_experimental.trc
DataRate	CameraRate	NumFrames	NumMarkers	Units	OrigDataRate	OrigDataStartFrame	OrigNumFrames
240.000000	240.000000	4	38	mm	240.000000	134	215
Frame#	Time	RPSI			LPSI			RASI			LASI			RTH1			RTH2			RTH3			RTH4			RSK1			RSK2			RSK3			RSK4			RCAL1			RCAL2			RCAL3			RST			RPT			RTN			RFMB			RSMB			RVMB			RFMH			RSMH			RVMH			RPM			LTH1			LTH2			LTH3			LTH4			LSK1			LSK2			LSK3			LSK4			LCAL1			LCAL2			LCAL3			LFMH			LVMH			
		X1	Y1	Z1	X2	Y2	Z2	X3	Y3	Z3	X4	Y4	Z4	X5	Y5	Z5	X6	Y6	Z6	X7	Y7	Z7	X8	Y8	Z8	X9	Y9	Z9	X10	Y10	Z10	X11	Y11	Z11	X12	Y12	Z12	X13	Y13	Z13	X14	Y14	Z14	X15	Y15	Z15	X16	Y16	Z16	X17	Y17	Z17	X18	Y18	Z18	X19	Y19	Z19	X20	Y20	Z20	X21	Y21	Z21	X22	Y22	Z22	X23	Y23	Z23	X24	Y24	Z24	X25	Y25	Z25	X26	Y26	Z26	X27	Y27	Z27	X28	Y28	Z28	X29	Y29	Z29	X30	Y30	Z30	X31	Y31	Z31	X32	Y32	Z32	X33	Y33	Z33	X34	Y34	Z34	X35	Y35	Z35	X36	Y36	Z36	X37	Y37	Z37	X38	Y38	Z38	

135	0.5583333333333333	503.3885498046876	1085.827514648438	-1563.351684570313	398.4441528320314	1096.628784179688	-1555.98779296875	553.3238525390626	998.7962646484377	-1760.525268554688	301.9887695312501	1009.346740722656	-1741.748046875	625.8950805664064	738.1521606445314	-1739.1826171875	609.3771362304689	736.0802612304689	-1797.651123046875	614.1437988281251	661.5644531250001	-1773.467041015625	588.2091674804689	658.5399169921876	-1826.049438476563	587.0451660156251	537.2773437500001	-1512.284057617188	589.2724609375001	476.2940979003907	-1503.299926757813	586.3018188476564	516.8060302734376	-1457.441284179688	575.2703247070314	458.126922607422	-1449.08935546875	532.5438232421876	564.5894775390626	-1324.219116210938	494.3485717773439	563.1730957031251	-1292.725341796875	557.6767578125001	569.2756347656251	-1282.524536132813	486.2265930175782	490.7342834472657	-1296.508544921875	584.3137207031251	510.2332153320314	-1278.0703125	504.5284729003907	435.0432128906251	-1301.95703125	504.0303039550782	407.8795776367189	-1277.349365234375	556.6867675781251	395.826385498047	-1291.367919921875	591.0067749023439	472.5556030273439	-1242.391479492188	496.4507141113282	360.2679443359376	-1235.837158203125	553.3256225585939	347.9898986816407	-1241.262084960938	607.3400268554689	398.8131713867189	-1213.924072265625	543.3136596679689	293.2052917480469	-1225.356689453125	240.6350097656251	754.2431030273439	-1694.23779296875	234.236557006836	753.3739013671876	-1754.603393554688	245.7233276367188	676.3586425781251	-1730.849365234375	254.7810516357422	678.1848754882814	-1791.953369140625	316.7330017089844	274.0484619140626	-1611.050659179688	317.2057495117188	238.119857788086	-1650.485229492188	326.8588867187501	218.1431579589844	-1606.228271484375	343.0837402343751	185.4441375732422	-1649.966796875	402.4742431640626	95.33455657958986	-1491.820922851563	371.0770263671876	59.04060363769533	-1487.773681640625	429.2170410156251	55.98545074462892	-1492.65673828125	438.6268005371095	50.21630096435548	-1721.582275390625	325.6127624511719	29.67419624328614	-1674.258422851563	
136	0.5625	503.3804626464845	1087.389892578125	-1577.156860351563	398.5542297363282	1097.894409179688	-1569.708984375	553.6716918945314	1002.004760742188	-1774.27001953125	302.4627380371094	1010.655883789063	-1755.092651367188	626.1992797851564	741.3918457031251	-1757.3271484375	609.9970092773439	740.4488525390626	-1815.996704101563	614.7883300781251	665.4307861328126	-1793.154296875	589.0350341796876	663.3730468750001	-1845.873291015625	587.0974731445314	535.8516235351564	-1534.581298828125	588.8309326171876	474.7067871093751	-1526.708129882813	585.6204833984376	514.1423339843751	-1480.260131835938	574.5828857421876	455.5621337890626	-1472.885131835938	531.8081665039064	559.9078979492189	-1345.31591796875	493.5842285156251	557.8748168945314	-1313.95068359375	556.7494506835939	563.2259521484376	-1303.475830078125	485.1495056152345	485.575408935547	-1319.699096679688	583.2182617187501	504.1436157226564	-1300.490600585938	503.2164611816407	429.8917236328126	-1326.671142578125	502.5245056152345	402.2166748046876	-1302.691528320313	555.1613159179689	390.2023315429689	-1317.048828125	589.7171020507814	465.4271545410157	-1265.939086914063	494.4948730468751	353.7363281250001	-1262.296508789063	550.3550415039064	340.5270996093751	-1267.420043945313	605.5143432617189	390.9181213378907	-1239.306274414063	541.4389648437501	286.2677307128907	-1254.018920898438	240.6900787353516	754.5427246093751	-1704.474975585938	234.8556671142579	752.5513916015626	-1764.872192382813	245.6450653076172	676.0708007812501	-1739.619873046875	255.4526062011719	676.5495605468751	-1800.548461914063	316.6268920898438	274.6135864257813	-1613.4921875	317.2784729003907	238.0485382080079	-1652.74169921875	326.7564392089844	219.0365753173829	-1608.175659179688	342.9115600585938	185.7359771728516	-1651.526977539063	401.881317138672	96.1474304199219	-1492.722900390625	370.9006958007813	60.0489959716797	-1488.13525390625	429.1246643066407	57.27471923828126	-1493.015747070313	438.7322998046876	50.41962051391603	-1721.763671875	325.6196899414063	29.67296028137208	-1674.306884765625	
137	0.5666666666666667	503.456024169922	1089.111206054688	-1591.0537109375	398.6323242187501	1099.34619140625	-1583.592041015625	553.8640136718751	1005.283264160156	-1788.166015625	303.2268981933594	1012.127014160156	-1769.091796875	626.4551391601564	744.9738769531251	-1775.40087890625	610.4684448242189	745.1011352539064	-1834.011474609375	615.3832397460939	669.7744750976564	-1812.674194335938	590.0043334960939	668.7246093750001	-1865.723876953125	587.0860595703126	534.3839111328126	-1556.692016601563	588.4159545898439	473.1407470703126	-1550.09228515625	585.2770385742189	511.5700073242189	-1502.84765625	573.7230224609376	452.8725585937501	-1496.648559570313	531.0243530273439	554.8023071289064	-1366.376953125	492.7659606933595	552.0458374023439	-1335.171875	555.9078369140626	556.8053588867189	-1324.3984375	484.0646972656251	479.9544067382814	-1342.993530273438	582.1412963867189	497.6080932617189	-1323.0654296875	501.820037841797	424.5215454101564	-1351.439208984375	500.8164672851564	396.1756286621095	-1328.314331054688	553.6597290039064	384.3110961914064	-1342.9013671875	588.3643188476564	457.8415832519532	-1289.562744140625	492.6463623046876	346.6821289062501	-1289.123779296875	548.4949951171876	333.2487182617188	-1294.744262695313	603.7326049804689	382.4946289062501	-1265.126342773438	539.3958740234376	278.7245178222657	-1283.045532226563	240.8494262695313	754.8909301757814	-1714.27197265625	235.3666381835938	751.7710571289064	-1774.78662109375	245.8867645263672	675.9207153320314	-1747.997924804688	256.0779113769532	675.1212768554689	-1808.82470703125	316.4099731445313	275.3913879394532	-1615.89306640625	316.8838195800782	238.5317840576172	-1654.532592773438	326.4799194335938	219.6281890869141	-1609.811767578125	342.6065979003907	185.9863891601563	-1652.795532226563	401.496307373047	97.85144805908206	-1492.844970703125	370.5332336425782	61.08049392700197	-1488.49560546875	428.7805786132814	58.82940673828126	-1493.377319335938	438.5978393554689	50.58029174804689	-1721.895385742188	325.5839538574219	29.55842781066895	-1674.307739257813	
138	0.5708333333333333	503.5951232910157	1091.002563476563	-1605.017456054688	398.6041870117189	1100.958984375	-1597.66748046875	553.8895263671876	1008.53759765625	-1802.049926757813	302.8545227050782	1013.588012695313	-1783.075073242188	626.6834106445314	748.9754638671876	-1793.204345703125	610.9240722656251	750.3068237304689	-1851.979370117188	615.9324951171876	674.5343627929689	-1832.006713867188	590.5557250976564	674.3883666992189	-1885.103637695313	587.0302734375001	532.8909301757814	-1578.59375	587.8889770507814	471.4884033203126	-1573.341674804688	584.7636108398439	508.9466552734376	-1525.283935546875	572.8868408203126	450.1666564941407	-1520.550537109375	530.1973876953126	549.3887939453126	-1387.305908203125	491.7373046875001	545.8584594726564	-1356.159301757813	555.2253417968751	550.1776733398439	-1345.260131835938	482.8796386718751	473.9481811523439	-1366.31201171875	580.9689331054689	490.6311950683595	-1345.64892578125	500.4684448242189	418.8611145019532	-1376.341918945313	499.1826171875001	389.7933349609376	-1354.077514648438	552.1131591796876	378.2741394042969	-1368.989379882813	586.9840698242189	449.8905639648439	-1313.395385742188	490.6992797851564	339.3472900390626	-1316.213012695313	546.5734252929689	325.6869812011719	-1322.383544921875	601.9946289062501	373.7941589355469	-1291.192260742188	537.0864257812501	270.7514343261719	-1312.41162109375	241.1127624511719	755.4935913085939	-1723.979736328125	235.9137878417969	751.2183837890626	-1784.348022460938	246.157943725586	675.9514770507814	-1756.169067382813	256.7727355957032	673.6754150390626	-1817.1015625	316.2441101074219	276.3512878417969	-1618.052734375	316.5759277343751	239.2749023437501	-1656.330444335938	326.1812744140626	220.9048156738282	-1611.504760742188	342.2551574707032	186.8490142822266	-1654.251098632813	400.6573486328126	99.38235473632815	-1493.404418945313	370.1187744140626	62.34690093994142	-1488.83740234375	428.3501892089845	60.6522674560547	-1493.764404296875	438.4248657226564	50.74436187744142	-1722.090087890625	325.5459594726563	29.45149040222169	-1674.386352539063	
